HIERARCHY
ROOT Hips
{
	OFFSET 0.000000 0.000000 0.000000
	CHANNELS 6 Xposition Yposition Zposition Zrotation Yrotation Xrotation 
	JOINT LHipJoint
	{
		OFFSET 0.000000 0.000000 0.000000
		CHANNELS 3 Zrotation Yrotation Xrotation
		JOINT LeftUpLeg
		{
			OFFSET 1.363060 -1.794630 0.839290
			CHANNELS 3 Zrotation Yrotation Xrotation
			JOINT LeftLeg
			{
				OFFSET 2.448110 -6.726130 0.000000
				CHANNELS 3 Zrotation Yrotation Xrotation
				JOINT LeftFoot
				{
					OFFSET 2.562200 -7.039590 0.000000
					CHANNELS 3 Zrotation Yrotation Xrotation
					JOINT LeftToeBase
					{
						OFFSET 0.157640 -0.433110 2.322550
						CHANNELS 3 Zrotation Yrotation Xrotation
						End Site
						{
							OFFSET 0.000000 0.000000 0.000000
						}
					}
				}
			}
		}
	}
	JOINT RHipJoint
	{
		OFFSET 0.000000 0.000000 0.000000
		CHANNELS 3 Zrotation Yrotation Xrotation
		JOINT RightUpLeg
		{
			OFFSET -1.305520 -1.794630 0.839290
			CHANNELS 3 Zrotation Yrotation Xrotation
			JOINT RightLeg
			{
				OFFSET -2.542530 -6.985550 0.000000
				CHANNELS 3 Zrotation Yrotation Xrotation
				JOINT RightFoot
				{
					OFFSET -2.568260 -7.056230 0.000000
					CHANNELS 3 Zrotation Yrotation Xrotation
					JOINT RightToeBase
					{
						OFFSET -0.164730 -0.452590 2.363150
						CHANNELS 3 Zrotation Yrotation Xrotation
						End Site
						{
							OFFSET 0.000000 0.000000 0.000000
						}
					}
				}
			}
		}
	}
	JOINT LowerBack
	{
		OFFSET 0.000000 0.000000 0.000000
		CHANNELS 3 Zrotation Yrotation Xrotation
		JOINT Spine
		{
			OFFSET 0.028270 2.035590 -0.193380
			CHANNELS 3 Zrotation Yrotation Xrotation
			JOINT Spine1
			{
				OFFSET 0.056720 2.048850 -0.042750
				CHANNELS 3 Zrotation Yrotation Xrotation
				JOINT Neck
				{
					OFFSET 0.000000 0.000000 0.000000
					CHANNELS 3 Zrotation Yrotation Xrotation
					JOINT Neck1
					{
						OFFSET -0.054170 1.746240 0.172020
						CHANNELS 3 Zrotation Yrotation Xrotation
						JOINT Head
						{
							OFFSET 0.104070 1.761360 -0.123970
							CHANNELS 3 Zrotation Yrotation Xrotation
							End Site
							{
								OFFSET 0.000000 0.000000 0.000000
							}
						}
					}
				}
				JOINT LeftShoulder
				{
					OFFSET 0.000000 0.000000 0.000000
					CHANNELS 3 Zrotation Yrotation Xrotation
					JOINT LeftArm
					{
						OFFSET 3.362410 1.200890 -0.311210
						CHANNELS 3 Zrotation Yrotation Xrotation
						JOINT LeftForeArm
						{
							OFFSET 4.983000 -0.000000 -0.000000
							CHANNELS 3 Zrotation Yrotation Xrotation
							JOINT LeftHand
							{
								OFFSET 3.483560 -0.000000 -0.000000
								CHANNELS 3 Zrotation Yrotation Xrotation
								JOINT LeftFingerBase
								{
									OFFSET 0.000000 0.000000 0.000000
									CHANNELS 3 Zrotation Yrotation Xrotation
									JOINT LeftHandIndex1
									{
										OFFSET 0.715260 -0.000000 -0.000000
										CHANNELS 3 Zrotation Yrotation Xrotation
										End Site
										{
											OFFSET 0.000000 0.000000 0.000000
										}
									}
								}
								JOINT LThumb
								{
									OFFSET 0.000000 0.000000 0.000000
									CHANNELS 3 Zrotation Yrotation Xrotation
									End Site
									{
										OFFSET 0.000000 0.000000 0.000000
									}
								}
							}
						}
					}
				}
				JOINT RightShoulder
				{
					OFFSET 0.000000 0.000000 0.000000
					CHANNELS 3 Zrotation Yrotation Xrotation
					JOINT RightArm
					{
						OFFSET -3.136600 1.374050 -0.404650
						CHANNELS 3 Zrotation Yrotation Xrotation
						JOINT RightForeArm
						{
							OFFSET -5.241900 -0.000000 -0.000000
							CHANNELS 3 Zrotation Yrotation Xrotation
							JOINT RightHand
							{
								OFFSET -3.444170 -0.000000 -0.000000
								CHANNELS 3 Zrotation Yrotation Xrotation
								JOINT RightFingerBase
								{
									OFFSET 0.000000 0.000000 0.000000
									CHANNELS 3 Zrotation Yrotation Xrotation
									JOINT RightHandIndex1
									{
										OFFSET -0.622530 -0.000000 -0.000000
										CHANNELS 3 Zrotation Yrotation Xrotation
										End Site
										{
											OFFSET 0.000000 0.000000 0.000000
										}
									}
								}
								JOINT RThumb
								{
									OFFSET 0.000000 0.000000 0.000000
									CHANNELS 3 Zrotation Yrotation Xrotation
									End Site
									{
										OFFSET 0.000000 0.000000 0.000000
									}
								}
							}
						}
					}
				}
			}
		}
	}
}
MOTION
Frames: 6
Frame Time: 0.008333
16.527850 17.593318 2.956312 -175.402264 3.163886 -171.722867 -2.743397 2.602615 2.526440 -8.443853 -19.793771 -32.373335 2.221704 6.268270 22.222397 -0.684710 4.891719 -0.877155 0.557500 -4.782600 -13.289400 -0.721183 -2.041128 0.961989 29.860176 2.543855 13.587160 -2.230267 -4.614476 15.836114 0.052992 4.447096 -3.274266 -0.315900 3.613000 -9.990500 4.234706 2.107135 -1.262819 2.406876 2.774133 6.573867 -5.369268 1.208069 -3.174877 -5.398106 -2.583424 -16.289038 0.512275 -2.634672 5.769347 0.382900 -1.517600 5.236800 -4.107645 -1.523895 -0.459624 -91.969247 7.489667 11.755334 15.131034 -15.697993 -1.843129 -0.692835 -1.123840 3.246839 24.114993 21.752410 10.172800 -7.125000 0.000000 0.000000 -4.612400 54.875800 -1.120500 1.348207 0.923489 -0.095979 89.449224 -1.248628 14.824192 -20.012330 27.975289 -4.569922 0.314358 -0.183220 2.221865 -18.352678 31.236350 -9.972800 7.125000 0.000000 0.000000 7.290000 2.530300 7.666000 
16.520397 17.584146 2.767906 -176.094167 2.981391 -171.811693 -2.772943 2.600362 2.535039 -9.372025 -20.101751 -31.937576 2.338208 6.427564 22.793553 -0.643399 4.463858 -0.066309 0.456800 -4.335900 -12.023500 -0.762776 -2.052682 0.961187 29.219710 2.730975 13.099351 -2.456258 -5.284257 17.820119 0.077677 4.518102 -2.606065 -0.458100 4.341600 -12.039800 3.618742 2.083321 -1.342150 1.932025 2.724489 6.592739 -5.057470 1.185565 -3.177437 -5.212772 -2.626233 -16.332080 0.407746 -2.721947 5.762267 0.331300 -1.560800 5.237900 -4.094155 -1.541041 -0.456130 -91.887630 7.220563 11.718165 14.991764 -15.474578 -1.794229 -0.716315 -1.095514 4.150681 24.231996 21.718391 10.207500 -7.125000 0.000000 0.000000 -4.464300 54.844900 -1.081100 1.394563 0.932171 -0.100322 89.656582 -1.700470 14.060785 -19.769533 27.642620 -4.443929 0.310340 -0.185812 2.682355 -18.931904 31.299254 -10.315800 7.125000 0.000000 0.000000 6.969900 2.703100 7.344500 
16.517149 17.578318 2.580742 -176.847193 2.707956 -171.994279 -2.820870 2.595262 2.554154 -10.453172 -20.289957 -31.361428 2.457938 6.600250 23.387377 -0.604526 4.085491 0.733963 0.556600 -4.778700 -13.278500 -0.824940 -2.068154 0.962066 28.570412 2.817957 12.502207 -2.731817 -6.026018 20.062814 0.101104 4.500276 -1.791262 -0.512400 4.588100 -12.737500 3.157063 1.970198 -1.386799 1.127334 2.560622 6.639667 -4.850488 1.098209 -3.145943 -5.116756 -2.619518 -15.955059 0.867030 -2.779106 5.180000 0.449600 -1.557700 5.038600 -4.016842 -1.567494 -0.452229 -91.552993 6.924771 11.511079 14.902842 -15.349055 -1.765184 -0.736106 -1.021608 3.777907 25.184377 20.403856 10.055600 -7.125000 0.000000 0.000000 -3.013200 53.556600 -0.634500 1.473143 0.946719 -0.118465 90.127171 -2.076796 13.320078 -19.445533 27.206455 -4.287393 0.302133 -0.196447 3.316908 -18.727730 31.572740 -10.277600 7.125000 0.000000 0.000000 7.124900 2.947800 7.539300 
16.523550 17.580802 2.402559 -177.340863 2.539093 -172.012530 -2.817244 2.600544 2.576748 -11.227536 -20.328768 -31.054073 2.574405 6.782997 24.000308 -0.574391 3.816321 1.326441 0.765500 -5.587000 -15.590700 -0.862518 -2.099065 0.993561 28.195024 3.190522 11.609615 -3.057078 -6.774675 22.415142 0.124739 4.350292 -0.599077 -0.385900 3.989100 -11.046000 2.455097 1.806187 -1.573589 0.974789 2.328835 6.792881 -4.461700 0.995303 -3.045446 -5.475346 -2.627586 -15.916721 1.478760 -2.744281 4.757511 0.671800 -1.517000 4.938300 -4.016921 -1.599161 -0.455686 -91.547024 6.325953 10.703159 14.867984 -15.297611 -1.743696 -0.745963 -0.961751 3.125366 25.832794 18.844895 9.616000 -7.125000 0.000000 0.000000 -1.907400 51.932400 -0.325700 1.507793 0.984107 -0.126868 90.254815 -2.186382 12.850627 -19.209143 26.890332 -4.177760 0.293758 -0.198113 3.790746 -18.372690 31.154107 -9.955700 7.125000 0.000000 0.000000 7.278400 2.459500 7.644900 
16.525748 17.584815 2.228006 -177.609115 2.376657 -171.970586 -2.796278 2.608376 2.587998 -11.770136 -20.326951 -30.893520 2.690047 6.979664 24.641420 -0.563689 3.759313 1.730714 1.023100 -6.434500 -18.050400 -0.896326 -2.138447 1.027597 27.949194 3.479558 10.483210 -3.415228 -7.507362 24.793939 0.139052 4.192824 0.781969 -0.374000 3.927700 -10.873400 1.971232 1.727112 -1.764535 0.996706 2.211998 6.856932 -4.182939 0.947711 -2.956516 -5.655887 -2.697854 -15.942813 1.638914 -2.808148 4.668528 0.738800 -1.545200 4.926500 -4.045050 -1.631541 -0.455426 -91.623783 5.785270 10.221585 14.833916 -15.237578 -1.719458 -0.740152 -0.989314 2.957341 25.379672 19.228880 9.610700 -7.125000 0.000000 0.000000 -2.472100 52.289500 -0.443800 1.523210 1.016224 -0.126614 90.362173 -2.426301 12.260988 -19.072928 26.697706 -4.107371 0.291965 -0.197720 4.120229 -18.988173 31.064986 -10.274800 7.125000 0.000000 0.000000 6.917000 2.483400 7.262400 
16.519633 17.579082 2.047721 -177.716659 2.249342 -172.172039 -2.797117 2.605231 2.591518 -12.217910 -20.158620 -30.425210 2.800111 7.189658 25.277943 -0.527972 3.489401 2.035108 0.998800 -6.360000 -17.832600 -0.944048 -2.160582 1.030938 27.788468 3.503375 9.592897 -3.787387 -8.216923 27.141751 0.138566 4.081811 2.302275 -0.515500 4.601700 -12.776000 2.043290 1.823950 -1.642688 0.654112 2.343126 6.722388 -4.243763 1.005544 -3.032867 -5.500458 -2.848882 -15.475756 1.674356 -3.079955 4.700767 0.714400 -1.672200 4.867800 -4.009366 -1.644542 -0.442737 -91.288488 5.643398 10.910403 14.712727 -15.045209 -1.686512 -0.751064 -1.003557 3.062284 25.393302 19.972162 9.955700 -7.125000 0.000000 0.000000 -2.641800 53.106900 -0.527200 1.557768 1.026913 -0.126045 90.798129 -3.065431 11.314832 -18.869606 26.408159 -4.009592 0.286208 -0.200533 4.338810 -19.178321 30.988750 -10.357800 7.125000 0.000000 0.000000 6.802000 2.445000 7.135700 
